<svg width="46" height="46" viewBox="0 0 46 46" fill="none" xmlns="http://www.w3.org/2000/svg">
<path d="M23 4.3125C19.3039 4.3125 15.6909 5.40851 12.6178 7.46192C9.54464 9.51532 7.14942 12.4339 5.73501 15.8486C4.32059 19.2634 3.95052 23.0207 4.67159 26.6458C5.39265 30.2707 7.17245 33.6006 9.78595 36.2141C12.3994 38.8276 15.7293 40.6074 19.3542 41.3284C22.9793 42.0495 26.7368 41.6795 30.1514 40.2649C33.5661 38.8506 36.4848 36.4554 38.5381 33.3822C40.5915 30.3091 41.6875 26.6961 41.6875 23C41.6823 18.0454 39.7118 13.2952 36.2083 9.79172C32.7049 6.28827 27.9546 4.31773 23 4.3125ZM23 38.8125C19.8726 38.8125 16.8154 37.8852 14.215 36.1477C11.6147 34.4102 9.58797 31.9405 8.39116 29.0512C7.19436 26.1618 6.88121 22.9825 7.49134 19.9151C8.10148 16.8478 9.60746 14.0303 11.8189 11.8189C14.0303 9.60746 16.8478 8.10146 19.9151 7.49133C22.9825 6.8812 26.1618 7.19434 29.0512 8.39116C31.9405 9.58797 34.4102 11.6147 36.1477 14.215C37.8852 16.8154 38.8125 19.8726 38.8125 23C38.8078 27.1923 37.1403 31.2114 34.1758 34.1758C31.2114 37.1403 27.1923 38.8078 23 38.8125ZM28.3295 21.983C28.4632 22.1165 28.5692 22.2751 28.6416 22.4496C28.7139 22.6241 28.7511 22.8111 28.7511 23C28.7511 23.1889 28.7139 23.3759 28.6416 23.5504C28.5692 23.7249 28.4632 23.8835 28.3295 24.017L21.142 31.2045C21.0085 31.3381 20.8499 31.444 20.6754 31.5163C20.5009 31.5886 20.3139 31.6259 20.125 31.6259C19.9361 31.6259 19.7491 31.5886 19.5746 31.5163C19.4001 31.444 19.2415 31.3381 19.108 31.2045C18.9744 31.071 18.8685 30.9124 18.7962 30.7379C18.7239 30.5634 18.6866 30.3764 18.6866 30.1875C18.6866 29.9986 18.7239 29.8116 18.7962 29.6371C18.8685 29.4626 18.9744 29.304 19.108 29.1705L25.2803 23L19.108 16.8295C18.8383 16.5599 18.6866 16.194 18.6866 15.8125C18.6866 15.431 18.8383 15.0651 19.108 14.7955C19.3776 14.5258 19.7435 14.3742 20.125 14.3742C20.5065 14.3742 20.8724 14.5258 21.142 14.7955L28.3295 21.983Z" fill="#B6DD48"/>
</svg>
