<svg width="47" height="47" viewBox="0 0 47 47" fill="none" xmlns="http://www.w3.org/2000/svg">
<path d="M16.4194 4.85511C17.4477 4.54507 18.5512 4.59658 19.5461 5.00107C20.5411 5.40555 21.3675 6.13861 21.8878 7.07821L22.0617 7.42836L23.6174 10.8852C24.0886 11.9346 24.2414 13.0993 24.0567 14.2348C23.8721 15.3702 23.3582 16.4265 22.5787 17.2725L22.2662 17.5827L19.8151 19.8693C19.3733 20.2876 19.7047 21.9067 21.3027 24.675C22.7409 27.166 23.9112 28.3293 24.4869 28.3927H24.588L24.7125 28.3692L29.53 26.8958C30.1775 26.6972 30.8684 26.6893 31.5202 26.8731C32.172 27.0569 32.7571 27.4246 33.2054 27.9321L33.4193 28.2024L36.6082 32.6204C37.2332 33.4863 37.5446 34.5393 37.4912 35.6059C37.4378 36.6725 37.0228 37.6891 36.3145 38.4883L36.0278 38.7844L34.7541 39.9923C33.6103 41.0755 32.1796 41.8074 30.6319 42.1011C29.0843 42.3948 27.4849 42.2379 26.0238 41.6491C21.4766 39.8161 17.3453 35.6284 13.5923 29.1283C9.83231 22.6117 8.26956 16.9318 8.96751 12.0673C9.17871 10.5968 9.78423 9.21097 10.7198 8.05698C11.6553 6.90299 12.8859 6.02391 14.2809 5.51311L14.7344 5.36271L16.4194 4.85511Z" fill="#B6DD48"/>
</svg>
