<svg width="42" height="42" viewBox="0 0 42 42" fill="none" xmlns="http://www.w3.org/2000/svg">
<path d="M21 3.9375C24.3747 3.9375 27.6735 4.9382 30.4794 6.81306C33.2853 8.6879 35.4723 11.3527 36.7637 14.4704C38.0551 17.5883 38.393 21.0189 37.7346 24.3288C37.0763 27.6385 35.4512 30.6788 33.065 33.065C30.6788 35.4513 27.6385 37.0763 24.3288 37.7346C21.0189 38.393 17.5882 38.0552 14.4704 36.7637C11.3527 35.4723 8.68783 33.2854 6.81306 30.4794C4.93815 27.6735 3.9375 24.3747 3.9375 21C3.94223 16.4762 5.7414 12.1391 8.94023 8.94026C12.1391 5.74147 16.4762 3.94228 21 3.9375ZM21 35.4375C23.8555 35.4375 26.6468 34.5908 29.021 33.0044C31.3953 31.418 33.2458 29.1631 34.3385 26.525C35.4312 23.8868 35.7172 20.984 35.1601 18.1834C34.603 15.3828 33.228 12.8103 31.2088 10.7912C29.1897 8.77203 26.6172 7.39699 23.8166 6.83991C21.016 6.28283 18.1132 6.56875 15.475 7.6615C12.8369 8.75423 10.582 10.6047 8.99561 12.979C7.40919 15.3532 6.5625 18.1445 6.5625 21C6.56683 24.8278 8.08933 28.4974 10.796 31.204C13.5026 33.9107 17.1722 35.4332 21 35.4375ZM16.1339 20.0714C16.0118 20.1933 15.9151 20.3381 15.849 20.4974C15.7829 20.6568 15.749 20.8275 15.749 21C15.749 21.1725 15.7829 21.3432 15.849 21.5026C15.9151 21.6619 16.0118 21.8067 16.1339 21.9286L22.6964 28.4911C22.8183 28.613 22.9631 28.7098 23.1224 28.7758C23.2818 28.8418 23.4525 28.8758 23.625 28.8758C23.7975 28.8758 23.9682 28.8418 24.1276 28.7758C24.2869 28.7098 24.4317 28.613 24.5536 28.4911C24.6755 28.3692 24.7723 28.2244 24.8383 28.0651C24.9043 27.9057 24.9383 27.735 24.9383 27.5625C24.9383 27.39 24.9043 27.2193 24.8383 27.0599C24.7723 26.9006 24.6755 26.7558 24.5536 26.6339L18.918 21L24.5536 15.3661C24.7998 15.1199 24.9383 14.7858 24.9383 14.4375C24.9383 14.0892 24.7998 13.7551 24.5536 13.5089C24.3074 13.2627 23.9733 13.1243 23.625 13.1243C23.2767 13.1243 22.9426 13.2627 22.6964 13.5089L16.1339 20.0714Z" fill="#B6DD48"/>
</svg>
