<svg width="53" height="53" viewBox="0 0 53 60" fill="none" xmlns="http://www.w3.org/2000/svg" transform="rotate(90)">
<path d="M2.23208 28.4049C2.35372 23.7274 2.41454 21.3886 3.41353 19.3574C4.41252 17.3263 6.22781 15.8504 9.85839 12.8987L13.3802 10.0354C19.9425 4.7002 23.2236 2.0326 27.0468 2.13202C30.87 2.23145 34.008 5.06599 40.2841 10.7351L43.6523 13.7775C47.1245 16.914 48.8607 18.4822 49.7527 20.5625C50.6448 22.6429 50.584 24.9817 50.4623 29.6592L50.0824 44.2674C49.9135 50.7634 49.829 54.0114 47.7585 55.9769C45.688 57.9425 42.44 57.858 35.944 57.6891L15.2739 57.1515C8.77789 56.9826 5.5299 56.8981 3.56434 54.8276C1.59877 52.7571 1.68324 49.5091 1.85217 43.0131L2.23208 28.4049Z" stroke="white" stroke-width="3"/>
<path d="M34.2217 57.6444L34.7333 37.974C34.7476 37.4219 34.3117 36.9627 33.7596 36.9483L18.5338 36.5524C17.9817 36.538 17.5225 36.9739 17.5082 37.526L16.9966 57.1965" stroke="white" stroke-width="3" stroke-linecap="round" stroke-linejoin="round"/>
</svg>
