<svg width="30" height="31" viewBox="0 0 30 31" fill="none" xmlns="http://www.w3.org/2000/svg">
<g clip-path="url(#clip0_201_262)">
<path d="M18.4437 3.31226C20 3.31591 20.7899 3.32322 21.4719 3.34029L21.7403 3.34882C22.0501 3.35857 22.3559 3.37076 22.7252 3.38538C24.1971 3.44632 25.2015 3.65107 26.0827 3.9521C26.9957 4.26166 27.7649 4.68091 28.534 5.35732C29.2377 5.96637 29.7821 6.70339 30.129 7.51694C30.4707 8.29329 30.7031 9.1781 30.7723 10.4761C30.7889 10.8003 30.8028 11.0696 30.8138 11.3438L30.8221 11.5803C30.8429 12.1799 30.8512 12.8758 30.8539 14.2469L30.8553 15.1561V16.7526C30.8587 17.6416 30.8481 18.5306 30.8235 19.4193L30.8152 19.6557C30.8041 19.9299 30.7903 20.1993 30.7737 20.5234C30.7045 21.8214 30.4694 22.705 30.129 23.4826C29.7821 24.2961 29.2377 25.0331 28.534 25.6422C27.8427 26.2622 27.0061 26.7417 26.0827 27.0474C25.2015 27.3484 24.1971 27.5532 22.7252 27.6141L21.7403 27.6507L21.4719 27.658C20.7899 27.6751 20 27.6836 18.4437 27.686L17.4117 27.6873H15.6008C14.5913 27.6904 13.5818 27.681 12.5726 27.6592L12.3042 27.6519C11.9758 27.641 11.6475 27.6284 11.3193 27.6141C9.84737 27.5532 8.84304 27.3484 7.96045 27.0474C7.0375 26.7416 6.2014 26.262 5.51049 25.6422C4.80627 25.0333 4.26145 24.2962 3.91407 23.4826C3.57238 22.7062 3.33997 21.8214 3.2708 20.5234L3.2293 19.6557L3.22238 19.4193C3.19688 18.5306 3.18535 17.6416 3.1878 16.7526V14.2469C3.18397 13.3579 3.19412 12.469 3.21823 11.5803L3.22792 11.3438C3.23898 11.0696 3.25282 10.8003 3.26942 10.4761C3.33859 9.1781 3.57099 8.29451 3.91269 7.51694C4.26088 6.70306 4.80666 5.96601 5.51187 5.35732C6.20239 4.73764 7.03799 4.2581 7.96045 3.9521C8.84304 3.65107 9.84599 3.44632 11.3193 3.38538C11.6873 3.37076 11.9944 3.35857 12.3042 3.34882L12.5726 3.34151C13.5814 3.31985 14.5904 3.31051 15.5994 3.31347L18.4437 3.31226ZM17.0216 9.40601C15.1871 9.40601 13.4278 10.048 12.1306 11.1908C10.8334 12.3336 10.1047 13.8836 10.1047 15.4998C10.1047 17.1159 10.8334 18.6659 12.1306 19.8087C13.4278 20.9515 15.1871 21.5935 17.0216 21.5935C18.856 21.5935 20.6154 20.9515 21.9125 19.8087C23.2097 18.6659 23.9384 17.1159 23.9384 15.4998C23.9384 13.8836 23.2097 12.3336 21.9125 11.1908C20.6154 10.048 18.856 9.40601 17.0216 9.40601ZM17.0216 11.8435C17.5666 11.8434 18.1062 11.9379 18.6098 12.1216C19.1133 12.3053 19.5709 12.5745 19.9563 12.914C20.3418 13.2534 20.6476 13.6564 20.8562 14.1C21.0649 14.5436 21.1723 15.019 21.1724 15.4991C21.1725 15.9793 21.0652 16.4548 20.8567 16.8984C20.6483 17.342 20.3426 17.7451 19.9573 18.0847C19.572 18.4243 19.1146 18.6936 18.6111 18.8775C18.1076 19.0613 17.5679 19.1559 17.0229 19.156C15.9223 19.156 14.8667 18.7708 14.0884 18.0851C13.3101 17.3994 12.8728 16.4695 12.8728 15.4998C12.8728 14.5301 13.3101 13.6001 14.0884 12.9144C14.8667 12.2287 15.9223 11.8435 17.0229 11.8435M24.2857 7.57788C23.827 7.57788 23.3872 7.73839 23.0629 8.02409C22.7386 8.30979 22.5564 8.69728 22.5564 9.10132C22.5564 9.50536 22.7386 9.89285 23.0629 10.1786C23.3872 10.4643 23.827 10.6248 24.2857 10.6248C24.7443 10.6248 25.1841 10.4643 25.5084 10.1786C25.8327 9.89285 26.0149 9.50536 26.0149 9.10132C26.0149 8.69728 25.8327 8.30979 25.5084 8.02409C25.1841 7.73839 24.7443 7.57788 24.2857 7.57788Z" fill="#B6DD48"/>
</g>
<defs>
<clipPath id="clip0_201_262">
<rect width="29.25" height="29.25" fill="white" transform="translate(0.75 0.875)"/>
</clipPath>
</defs>
</svg>
