<svg width="24" height="25" viewBox="0 0 24 25" fill="none" xmlns="http://www.w3.org/2000/svg">
<path d="M21.375 0.5C22.0712 0.5 22.7389 0.776562 23.2312 1.26884C23.7234 1.76113 24 2.42881 24 3.125V21.5C24 22.1962 23.7234 22.8639 23.2312 23.3562C22.7389 23.8484 22.0712 24.125 21.375 24.125H3C2.30381 24.125 1.63613 23.8484 1.14384 23.3562C0.651562 22.8639 0.375 22.1962 0.375 21.5V3.125C0.375 2.42881 0.651562 1.76113 1.14384 1.26884C1.63613 0.776562 2.30381 0.5 3 0.5H21.375ZM20.7188 20.8438V13.8875C20.7188 12.7527 20.268 11.6644 19.4655 10.862C18.6631 10.0595 17.5748 9.60875 16.44 9.60875C15.3244 9.60875 14.025 10.2912 13.395 11.315V9.85812H9.73312V20.8438H13.395V14.3731C13.395 13.3625 14.2088 12.5356 15.2194 12.5356C15.7067 12.5356 16.1741 12.7292 16.5187 13.0738C16.8633 13.4184 17.0569 13.8858 17.0569 14.3731V20.8438H20.7188ZM5.4675 7.7975C6.0523 7.7975 6.61315 7.56519 7.02667 7.15167C7.44019 6.73815 7.6725 6.1773 7.6725 5.5925C7.6725 4.37188 6.68813 3.37438 5.4675 3.37438C4.87922 3.37438 4.31503 3.60807 3.89905 4.02405C3.48307 4.44003 3.24938 5.00422 3.24938 5.5925C3.24938 6.81313 4.24688 7.7975 5.4675 7.7975ZM7.29188 20.8438V9.85812H3.65625V20.8438H7.29188Z" fill="#B6DD48"/>
</svg>
