<svg width="24" height="24" viewBox="0 0 24 24" fill="none" xmlns="http://www.w3.org/2000/svg">
<path d="M12.196 0.012207C9.89127 0.012207 7.6384 0.695617 5.72218 1.97601C3.80593 3.2564 2.31241 5.07628 1.43045 7.20548C0.548503 9.33475 0.317748 11.6776 0.767364 13.938C1.21698 16.1983 2.32676 18.2746 3.9564 19.9043C5.58603 21.5339 7.66233 22.6437 9.92265 23.0933C12.1831 23.5429 14.526 23.3122 16.6552 22.4302C18.7844 21.5483 20.6043 20.0548 21.8847 18.1385C23.1651 16.2223 23.8485 13.9694 23.8485 11.6647C23.8452 8.57527 22.6165 5.61331 20.4319 3.42875C18.2474 1.24419 15.2854 0.0154697 12.196 0.012207ZM12.196 21.5245C10.2459 21.5245 8.33961 20.9463 6.71814 19.8629C5.09671 18.7795 3.83295 17.2395 3.08669 15.4379C2.34042 13.6362 2.14516 11.6538 2.52561 9.74115C2.90606 7.82853 3.8451 6.07169 5.22403 4.69278C6.60295 3.31385 8.35978 2.3748 10.2724 1.99435C12.185 1.61391 14.1675 1.80917 15.9691 2.55544C17.7708 3.3017 19.3107 4.56546 20.3941 6.18689C21.4775 7.80836 22.0558 9.71462 22.0558 11.6647C22.0528 14.2788 21.0131 16.7849 19.1646 18.6334C17.3162 20.4818 14.8101 21.5216 12.196 21.5245ZM15.5192 11.0305C15.6025 11.1138 15.6686 11.2127 15.7138 11.3215C15.7588 11.4303 15.7821 11.5469 15.7821 11.6647C15.7821 11.7825 15.7588 11.8991 15.7138 12.0079C15.6686 12.1167 15.6025 12.2156 15.5192 12.2989L11.0374 16.7806C10.9542 16.8639 10.8553 16.9299 10.7465 16.975C10.6377 17.0201 10.521 17.0433 10.4033 17.0433C10.2855 17.0433 10.1689 17.0201 10.0601 16.975C9.95124 16.9299 9.85237 16.8639 9.7691 16.7806C9.68583 16.6973 9.61977 16.5985 9.57468 16.4897C9.5296 16.3808 9.50638 16.2642 9.50638 16.1464C9.50638 16.0287 9.5296 15.912 9.57468 15.8032C9.61977 15.6944 9.68583 15.5955 9.7691 15.5123L13.6178 11.6647L9.7691 7.81714C9.60095 7.64899 9.50638 7.42087 9.50638 7.18298C9.50638 6.94509 9.60095 6.71697 9.7691 6.54881C9.93726 6.38066 10.1654 6.28613 10.4033 6.28613C10.6412 6.28613 10.8693 6.38066 11.0374 6.54881L15.5192 11.0305Z" fill="#B6DD48"/>
</svg>
