<svg width="31" height="30" viewBox="0 0 31 30" fill="none" xmlns="http://www.w3.org/2000/svg">
<g clip-path="url(#clip0_201_258)">
<path d="M15.5 0.75C16.8425 0.75 18.1375 0.921387 19.3848 1.26416C20.6321 1.60693 21.7985 2.09729 22.8839 2.73523C23.9694 3.37317 24.9548 4.13489 25.8403 5.02039C26.7258 5.90588 27.4875 6.89612 28.1255 7.99109C28.7634 9.08606 29.2538 10.2524 29.5966 11.4902C29.9393 12.728 30.1155 14.0229 30.125 15.375C30.125 16.7175 29.9536 18.0125 29.6108 19.2598C29.2681 20.5071 28.7777 21.6735 28.1398 22.7589C27.5018 23.8444 26.7401 24.8298 25.8546 25.7153C24.9691 26.6008 23.9789 27.3625 22.8839 28.0005C21.7889 28.6384 20.6226 29.1288 19.3848 29.4716C18.147 29.8143 16.8521 29.9905 15.5 30C14.1575 30 12.8625 29.8286 11.6152 29.4858C10.3679 29.1431 9.20154 28.6527 8.11609 28.0148C7.03064 27.3768 6.04517 26.6151 5.15967 25.7296C4.27417 24.8441 3.51245 23.8539 2.87451 22.7589C2.23657 21.6639 1.74622 20.5023 1.40344 19.274C1.06067 18.0458 0.884521 16.7461 0.875 15.375C0.875 14.0325 1.04639 12.7375 1.38916 11.4902C1.73193 10.2429 2.22229 9.07654 2.86023 7.99109C3.49817 6.90564 4.25989 5.92017 5.14539 5.03467C6.03088 4.14917 7.02112 3.38745 8.11609 2.74951C9.21106 2.11157 10.3727 1.62122 11.601 1.27844C12.8292 0.935669 14.1289 0.759521 15.5 0.75ZM15.5 28.1719C16.6711 28.1719 17.7994 28.0195 18.8849 27.7148C19.9703 27.4102 20.9891 26.9817 21.9413 26.4294C22.8934 25.8772 23.7599 25.2059 24.5406 24.4156C25.3214 23.6254 25.9879 22.7637 26.5402 21.8306C27.0924 20.8975 27.5256 19.8787 27.8398 18.7742C28.1541 17.6697 28.3064 16.5366 28.2969 15.375C28.2969 14.2039 28.1445 13.0756 27.8398 11.9901C27.5352 10.9047 27.1067 9.88586 26.5544 8.93372C26.0022 7.98157 25.3309 7.11511 24.5406 6.33435C23.7504 5.55359 22.8887 4.88708 21.9556 4.33484C21.0225 3.78259 20.0037 3.34937 18.8992 3.03516C17.7947 2.72095 16.6616 2.5686 15.5 2.57812C14.3289 2.57812 13.2006 2.73047 12.1151 3.03516C11.0297 3.33984 10.0109 3.76831 9.05872 4.32056C8.10657 4.8728 7.24011 5.54407 6.45935 6.33435C5.67859 7.12463 5.01208 7.98633 4.45984 8.91943C3.90759 9.85254 3.47437 10.8713 3.16016 11.9758C2.84595 13.0803 2.6936 14.2134 2.70312 15.375C2.70312 16.5461 2.85547 17.6744 3.16016 18.7599C3.46484 19.8453 3.89331 20.8641 4.44556 21.8163C4.9978 22.7684 5.66907 23.6349 6.45935 24.4156C7.24963 25.1964 8.11133 25.8629 9.04443 26.4152C9.97754 26.9674 10.9963 27.4006 12.1008 27.7148C13.2053 28.0291 14.3384 28.1814 15.5 28.1719ZM24.0265 15.6035L24.712 13.5469H25.7832L24.5692 17.2031H23.498L22.8125 15.1465L22.127 17.2031H21.0558L19.8418 13.5469H20.913L21.5985 15.6035L22.2841 13.5469H23.3409L24.0265 15.6035ZM17.3995 13.5469H18.4707L17.2567 17.2031H16.1855L15.5 15.1465L14.8145 17.2031H13.7433L12.5293 13.5469H13.6005L14.286 15.6035L14.9716 13.5469H16.0284L16.714 15.6035L17.3995 13.5469ZM10.087 13.5469H11.1582L9.94421 17.2031H8.87305L8.1875 15.1465L7.50195 17.2031H6.43079L5.2168 13.5469H6.28796L6.97351 15.6035L7.65906 13.5469H8.71594L9.40149 15.6035L10.087 13.5469Z" fill="#B6DD48"/>
</g>
<defs>
<clipPath id="clip0_201_258">
<rect width="29.25" height="29.25" fill="white" transform="translate(0.875 0.75)"/>
</clipPath>
</defs>
</svg>
